<mxfile host="app.diagrams.net" modified="2024-06-05T15:27:45.998Z" agent="Mozilla/5.0 (Windows NT 10.0; Win64; x64) AppleWebKit/537.36 (KHTML, like Gecko) Chrome/125.0.0.0 Safari/537.36" version="24.4.14" etag="Bqc3mHuoO1sPGh_g-gwW" type="github">
  <diagram name="Page-1" id="r-GOsUQeTkKL62tby3cD">
    <mxGraphModel>
      <root>
        <mxCell id="0" />
        <mxCell id="1" parent="0" />
      </root>
    </mxGraphModel>
  </diagram>
</mxfile>
